Coordinates
version=1
nRows=17
nColumns=40
inDegrees=yes

Units are S.I. units (second, meters, Newtons, ...)
Angles are in degrees.

endheader
time	pelvis_tilt	pelvis_list	pelvis_rotation	pelvis_tx	pelvis_ty	pelvis_tz	hip_flexion_r	hip_adduction_r	hip_rotation_r	knee_angle_r	knee_angle_r_beta	ankle_angle_r	subtalar_angle_r	mtp_angle_r	hip_flexion_l	hip_adduction_l	hip_rotation_l	knee_angle_l	knee_angle_l_beta	ankle_angle_l	subtalar_angle_l	mtp_angle_l	lumbar_extension	lumbar_bending	lumbar_rotation	arm_flex_r	arm_add_r	arm_rot_r	elbow_flex_r	pro_sup_r	wrist_flex_r	wrist_dev_r	arm_flex_l	arm_add_l	arm_rot_l	elbow_flex_l	pro_sup_l	wrist_flex_l	wrist_dev_l
     45.22000000	     -6.09073231	     -4.12652091	     -0.55281718	      0.84265981	      0.92715501	      0.52457249	     17.55431851	      3.37322213	    -14.79233232	     17.55412237	     17.55412237	      8.06963861	     -1.58329232	     -4.91151769	     31.28656435	    -11.81893467	      1.07478874	     47.15620716	     47.15620716	     15.87886061	    -19.26612778	     19.83726139	    -11.80952236	      5.88905781	      2.78386803	     17.16955835	    -14.99049964	      0.51039142	     39.16887162	     46.00040127	      0.00000000	      0.00000000	      0.12050766	     -8.92127189	    -13.20043060	     51.59111249	     46.05926594	      0.00000000	      0.00000000
     45.23385714	     -6.17943935	     -4.02682176	     -0.24495854	      0.84101725	      0.92734054	      0.52482358	     17.20526107	      3.26617362	    -14.88004023	     17.47578441	     17.47578441	      8.32460105	     -1.77070212	     -4.94465600	     32.00320825	    -11.46942254	      1.09002813	     44.23054809	     44.23054809	     15.26380122	    -19.09782559	     18.94989007	    -11.76678904	      5.87972249	      2.50436095	     19.11565947	    -14.90199455	      0.58465547	     40.35245778	     45.95571579	      0.00000000	      0.00000000	     -0.27553779	     -8.99461770	    -13.43538529	     51.08340874	     46.08941048	      0.00000000	      0.00000000
     45.24771429	     -6.21305105	     -3.87004896	      0.03692073	      0.83944203	      0.92765607	      0.52502690	     16.80439838	      3.09584003	    -14.94054855	     17.41999224	     17.41999224	      8.59458393	     -1.87050445	     -4.98409646	     32.36421985	    -11.01680738	      1.08039647	     40.86929431	     40.86929431	     14.50212235	    -18.82620628	     18.33748855	    -11.76570625	      5.78384620	      2.50370870	     20.90456484	    -14.92233042	      0.70491550	     41.27764067	     45.92178346	      0.00000000	      0.00000000	     -0.42157471	     -9.07970589	    -13.55338971	     50.42351670	     46.10031738	      0.00000000	      0.00000000
     45.26157143	     -6.29338992	     -3.88629339	      0.35755906	      0.83795756	      0.92767460	      0.52514641	     16.42045804	      3.08057277	    -15.22761702	     17.32010841	     17.32010841	      8.92735750	     -1.70742574	     -4.92323148	     32.52077067	    -10.79668104	      0.89544625	     37.04738907	     37.04738907	     12.07535631	    -18.50760291	     13.53742606	    -11.67968224	      5.96202106	      2.34576999	     22.79407800	    -15.16245762	      1.78539574	     42.39918634	     45.82110441	      0.00000000	      0.00000000	     -0.14989596	     -8.91881616	    -14.29757821	     48.29515478	     46.18468183	      0.00000000	      0.00000000
     45.27542857	     -6.32460305	     -3.81524615	      0.64144053	      0.83650693	      0.92784162	      0.52511648	     16.00071815	      3.00081785	    -15.30475986	     17.22692649	     17.22692649	      9.17310204	     -1.87181815	     -4.95034635	     32.60376990	    -10.37721944	      0.90228936	     33.49103513	     33.49103513	     11.32196673	    -17.75291295	     13.62232952	    -11.67638684	      5.97822691	      2.50499281	     24.45472924	    -15.33032681	      1.83350765	     43.17921125	     45.79746416	      0.00000000	      0.00000000	     -0.29559030	     -8.92470577	    -14.32671348	     47.98502989	     46.18769768	      0.00000000	      0.00000000
     45.28928571	     -6.32077612	     -3.87919751	      0.95214155	      0.83523901	      0.92789554	      0.52497295	     15.49404625	      3.02927278	    -15.60211901	     17.07574158	     17.07574158	      9.48092186	     -1.67464459	     -4.93389361	     32.43566837	    -10.15186054	      0.71236750	     29.65841145	     29.65841145	      8.97736082	    -16.98188222	      9.65442871	    -11.65857587	      6.22692586	      2.43083529	     26.14103785	    -15.60441277	      2.94435762	     44.18754296	     45.70239791	      0.00000000	      0.00000000	     -0.09749567	     -8.85575820	    -14.87030574	     46.33630179	     46.25957229	      0.00000000	      0.00000000
     45.30314286	     -6.35550085	     -3.91536700	      1.24230962	      0.83396434	      0.92792723	      0.52472692	     15.03339697	      3.06051289	    -15.74603036	     16.89568100	     16.89568100	      9.70818203	     -1.74834816	     -4.97843817	     32.46738916	     -9.88858052	      0.51139194	     26.48266341	     26.48266341	      8.41600166	    -15.39883988	     10.08383369	    -11.60979952	      6.37781777	      2.46022121	     27.67181803	    -15.66080709	      2.91169121	     44.93138145	     45.68449615	      0.00000000	      0.00000000	     -0.33522985	     -8.93344289	    -14.86430947	     46.03827641	     46.25799339	      0.00000000	      0.00000000
     45.31700000	     -6.31120882	     -4.05393974	      1.55342318	      0.83279581	      0.92803757	      0.52432987	     14.40537622	      3.19566372	    -16.03058012	     16.57058492	     16.57058492	      9.91501902	     -1.56867693	     -5.01553017	     32.43807131	     -9.76770890	      0.14486494	     23.61222833	     23.61222833	      7.78069554	    -13.48150686	      9.93450695	    -11.65282309	      6.68902404	      2.27065984	     29.24986106	    -15.59465666	      3.06610009	     45.84386863	     45.65006522	      0.00000000	      0.00000000	     -0.54092089	     -9.03993994	    -14.89332491	     45.30888584	     46.26026660	      0.00000000	      0.00000000
     45.33085714	     -6.31593040	     -4.14284110	      1.82003034	      0.83164332	      0.92807140	      0.52382116	     13.86538753	      3.27411491	    -16.23948141	     16.31004100	     16.31004100	     10.12311325	     -1.46283217	     -5.05957937	     32.46351590	     -9.60169419	     -0.31987591	     21.09800586	     21.09800586	      7.21579477	    -11.64288544	     10.06181236	    -11.60988590	      6.91667317	      2.27369878	     30.60957838	    -15.64189549	      3.13871450	     46.57930576	     45.62610835	      0.00000000	      0.00000000	     -0.69572583	     -9.15033913	    -14.92371623	     44.82152054	     46.26241329	      0.00000000	      0.00000000
     45.34471429	     -6.33685210	     -4.26165022	      2.07569586	      0.83050370	      0.92809288	      0.52317011	     13.31243275	      3.38512423	    -16.46684701	     15.99142110	     15.99142110	     10.31886674	     -1.30961812	     -5.09134092	     32.53720924	     -9.46447410	     -0.80876696	     18.97873759	     18.97873759	      6.69580855	     -9.94845408	     10.22340158	    -11.54233689	      7.17665430	      2.24567304	     31.84050876	    -15.62049420	      3.19251263	     47.30819851	     45.60301656	      0.00000000	      0.00000000	     -0.89558554	     -9.25000624	    -14.94434994	     44.35910741	     46.26254938	      0.00000000	      0.00000000
     45.35857143	     -6.35238426	     -4.41816009	      2.30614936	      0.82942668	      0.92809249	      0.52238507	     12.75295103	      3.53362048	    -16.69112424	     15.67561488	     15.67561488	     10.50638793	     -1.12010000	     -5.11760088	     32.65787010	     -9.37268400	     -1.27453659	     17.34030538	     17.34030538	      6.25108022	     -8.54025681	     10.33658121	    -11.46464919	      7.50612386	      2.23055105	     32.98128958	    -15.58579321	      3.22209659	     48.02797126	     45.58110877	      0.00000000	      0.00000000	     -1.10151757	     -9.32573139	    -14.96170966	     43.95860523	     46.26180545	      0.00000000	      0.00000000
     45.37242857	     -6.28565272	     -4.54048763	      2.47793342	      0.82844623	      0.92821743	      0.52162196	     12.03249395	      3.67332869	    -16.90967984	     15.23234465	     15.23234465	     10.69158612	     -0.76823001	     -5.12251629	     32.70257954	     -9.31487214	     -1.82932743	     16.17119659	     16.17119659	      5.84110376	     -7.31927145	     10.24765121	    -11.49087774	      7.72376425	      2.15327115	     34.03983424	    -15.48239095	      3.28976207	     48.89052406	     45.55172268	      0.00000000	      0.00000000	     -1.31797076	     -9.48987861	    -15.02532474	     43.47626633	     46.26666347	      0.00000000	      0.00000000
     45.38628571	     -6.27077431	     -4.69693601	      2.62146499	      0.82748088	      0.92821458	      0.52072993	     11.40401603	      3.83482490	    -17.10252279	     14.86281681	     14.86281681	     10.89346447	     -0.46366684	     -5.13742722	     32.80869022	     -9.28890788	     -2.22368530	     15.41931610	     15.41931610	      5.45516541	     -6.57444732	     10.14387630	    -11.44084056	      8.01486601	      2.16452082	     34.93164936	    -15.40746692	      3.32010243	     49.67451064	     45.52635412	      0.00000000	      0.00000000	     -1.53644022	     -9.57787237	    -15.09564731	     43.13199912	     46.27288490	      0.00000000	      0.00000000
     45.40014286	     -6.20457381	     -4.84088060	      2.71280811	      0.82664489	      0.92825264	      0.51985292	     10.65887311	      4.00219548	    -17.29085844	     14.39100653	     14.39100653	     11.09057626	     -0.00777538	     -5.11705651	     32.86276774	     -9.30801382	     -2.53943936	     15.12793657	     15.12793657	      5.03540507	     -6.15255523	      9.79750695	    -11.46968384	      8.24386472	      2.15833872	     35.68341617	    -15.29952499	      3.35764549	     50.65978146	     45.49265888	      0.00000000	      0.00000000	     -1.80182327	     -9.72688041	    -15.24042617	     42.78860265	     46.28785177	      0.00000000	      0.00000000
     45.41400000	     -6.25971071	     -4.90646780	      2.76101733	      0.82584049	      0.92795211	      0.51880938	     10.25186571	      4.02883449	    -17.30214850	     14.34086997	     14.34086997	     11.41972463	     -0.00597888	     -5.20605828	     32.97584241	     -9.24660413	     -2.69454111	     15.15891154	     15.15891154	      4.75533005	     -6.17949343	      9.86078068	    -11.24033405	      8.37095184	      2.41163171	     36.11968508	    -15.31816359	      3.33126659	     50.87178641	     45.48858361	      0.00000000	      0.00000000	     -1.94779329	     -9.81368583	    -15.28214704	     42.73025964	     46.29086252	      0.00000000	      0.00000000
     45.42785714	     -6.11833408	     -5.12721936	      2.74297692	      0.82521638	      0.92789004	      0.51792624	      9.36955309	      4.31086089	    -17.37488898	     13.78764749	     13.78764749	     11.59659649	      0.56088251	     -5.13591289	     32.90717380	     -9.42105571	     -2.66647032	     15.62891074	     15.62891074	      4.44634833	     -6.48825010	      9.50994774	    -11.38718008	      8.65848142	      2.32622415	     36.85645062	    -15.13029864	      3.29164508	     51.88916324	     45.45748655	      0.00000000	      0.00000000	     -2.28979689	     -9.93297881	    -15.41861328	     42.51731369	     46.30300269	      0.00000000	      0.00000000
     45.44171429	     -6.07994217	     -5.33493728	      2.70751780	      0.82484094	      0.92759975	      0.51696232	      8.59308000	      4.55085820	    -17.54481967	     13.26172518	     13.26172518	     11.84023705	      1.22883698	     -5.03700420	     32.76444716	     -9.58580483	     -2.53127249	     16.13235777	     16.13235777	      3.91551810	     -6.92507319	      8.79790304	    -11.32084173	      8.90378668	      2.34546684	     36.97697537	    -15.05091723	      3.29236574	     53.27807454	     45.40853807	      0.00000000	      0.00000000	     -2.69118591	    -10.04216543	    -15.77177240	     42.47950361	     46.34115302	      0.00000000	      0.00000000
